<svg width="62" height="62" viewBox="0 0 62 62" fill="none" xmlns="http://www.w3.org/2000/svg">
<g id="clock">
<rect id="Rectangle 6" width="62" height="62" rx="16" fill="#FFBE16"/>
<g id="ic-clock">
<path id="Vector" d="M43.2978 19.5702C42.444 18.7241 41.3215 18.2046 40.1254 18.1021C38.9293 17.9996 37.7351 18.3205 36.7505 19.0091C39.9155 20.3303 42.5011 22.7487 44.0351 25.8229C44.6272 24.8481 44.8764 23.7024 44.7427 22.569C44.609 21.4355 44.1003 20.3797 43.2978 19.5702Z" fill="white"/>
<path id="Vector_2" d="M25.4858 19.2053C24.5052 18.4245 23.2736 18.0306 22.0232 18.0978C20.7728 18.1651 19.5902 18.689 18.6987 19.5705C17.8145 20.4629 17.2908 21.6517 17.2284 22.9081C17.1661 24.1644 17.5696 25.3994 18.3611 26.3754C19.7865 23.1957 22.3197 20.6463 25.4858 19.2053Z" fill="white"/>
<path id="Vector_3" d="M31.3311 19.7112C28.8756 19.7163 26.4765 20.4501 24.4362 21.8201C22.3959 23.1901 20.8058 25.1349 19.8662 27.4096C18.9266 29.6842 18.6796 32.1868 19.1563 34.602C19.6331 37.0171 20.8122 39.2367 22.5452 40.9811L20.2798 43.2523C20.1976 43.3365 20.1327 43.4362 20.0889 43.5455C20.045 43.6549 20.0231 43.7719 20.0243 43.8897C20.0256 44.0076 20.0499 44.124 20.0961 44.2325C20.1422 44.3409 20.2092 44.4391 20.2932 44.5216C20.3772 44.604 20.4765 44.6691 20.5856 44.7131C20.6947 44.757 20.8113 44.779 20.9289 44.7778C21.0464 44.7765 21.1626 44.7521 21.2707 44.7058C21.3789 44.6596 21.4768 44.5924 21.5591 44.5082L23.9222 42.139C26.0831 43.7785 28.7221 44.6598 31.432 44.6469C34.1419 44.6341 36.7724 43.7277 38.9178 42.0677L41.3519 44.5082C41.5219 44.6541 41.7405 44.7304 41.9641 44.7217C42.1876 44.7131 42.3997 44.6201 42.5579 44.4615C42.7162 44.3029 42.8088 44.0902 42.8175 43.8661C42.8261 43.6419 42.7501 43.4227 42.6045 43.2523L40.2148 40.892C41.9234 39.1373 43.078 36.9165 43.5343 34.5074C43.9906 32.0982 43.7283 29.6077 42.7802 27.3472C41.8321 25.0867 40.2403 23.1567 38.2039 21.7985C36.1675 20.4403 33.7769 19.7143 31.3311 19.7112ZM37.9672 35.2361C37.8655 35.4482 37.684 35.6114 37.4626 35.6898C37.2412 35.7683 36.9979 35.7556 36.7857 35.6547L30.4428 32.5729V24.7793C30.4428 24.5431 30.5364 24.3165 30.703 24.1495C30.8696 23.9824 31.0955 23.8886 31.3311 23.8886C31.5667 23.8886 31.7927 23.9824 31.9593 24.1495C32.1259 24.3165 32.2195 24.5431 32.2195 24.7793V31.4595L37.5497 34.0514C37.6561 34.1004 37.7517 34.1699 37.8312 34.2559C37.9107 34.342 37.9724 34.443 38.0128 34.5531C38.0533 34.6631 38.0717 34.7801 38.0669 34.8974C38.0621 35.0146 38.0343 35.1297 37.985 35.2361H37.9672Z" fill="white"/>
</g>
</g>
</svg>
