<svg width="62" height="62" viewBox="0 0 62 62" fill="none" xmlns="http://www.w3.org/2000/svg">
<g id="Group 48">
<rect id="Rectangle 6" width="62" height="62" rx="16" fill="#FFBE16"/>
<path id="Vector" d="M44.0385 30.3751C42.8208 24.746 40.9882 21.7416 38.2698 20.9209C37.6984 20.7495 37.1057 20.6639 36.5102 20.6667C35.7231 20.6667 35.0376 20.8628 34.3125 21.0706C33.4387 21.3213 32.4461 21.606 30.9988 21.606C29.5514 21.606 28.5582 21.3219 27.6827 21.0712C26.957 20.8628 26.2721 20.6667 25.4873 20.6667C24.8716 20.6645 24.2585 20.7499 23.6657 20.9203C20.9616 21.7375 19.1302 24.7408 17.8948 30.3716C16.5663 36.431 17.2202 40.2567 19.7285 41.1443C20.0723 41.2682 20.434 41.3321 20.7986 41.3333C22.5169 41.3333 23.8948 39.8698 24.8363 38.6717C25.9001 37.3156 27.1454 36.6276 30.9988 36.6276C34.4405 36.6276 35.8649 37.1049 37.0952 38.6717C37.8685 39.6567 38.5994 40.3459 39.3285 40.7797C40.2982 41.3562 41.2672 41.4842 42.2082 41.1537C43.6905 40.6365 44.5402 39.2693 44.7343 37.0891C44.8818 35.4172 44.6545 33.2211 44.0385 30.3751ZM28.243 30.0593H26.4059V31.9378C26.4059 32.1869 26.3091 32.4258 26.1369 32.602C25.9646 32.7781 25.731 32.8771 25.4873 32.8771C25.2437 32.8771 25.0101 32.7781 24.8378 32.602C24.6655 32.4258 24.5688 32.1869 24.5688 31.9378V30.0593H22.7316C22.488 30.0593 22.2544 29.9603 22.0821 29.7842C21.9098 29.6081 21.813 29.3691 21.813 29.12C21.813 28.8709 21.9098 28.632 22.0821 28.4559C22.2544 28.2797 22.488 28.1808 22.7316 28.1808H24.5688V26.3023C24.5688 26.0532 24.6655 25.8143 24.8378 25.6381C25.0101 25.462 25.2437 25.363 25.4873 25.363C25.731 25.363 25.9646 25.462 26.1369 25.6381C26.3091 25.8143 26.4059 26.0532 26.4059 26.3023V28.1808H28.243C28.4867 28.1808 28.7203 28.2797 28.8926 28.4559C29.0648 28.632 29.1616 28.8709 29.1616 29.12C29.1616 29.3691 29.0648 29.6081 28.8926 29.7842C28.7203 29.9603 28.4867 30.0593 28.243 30.0593ZM33.0655 30.2941C32.8385 30.2941 32.6165 30.2253 32.4276 30.0962C32.2388 29.9672 32.0916 29.7839 32.0047 29.5693C31.9178 29.3548 31.8951 29.1187 31.9394 28.891C31.9837 28.6632 32.0931 28.454 32.2536 28.2898C32.4142 28.1256 32.6188 28.0138 32.8415 27.9685C33.0643 27.9232 33.2951 27.9465 33.505 28.0353C33.7148 28.1242 33.8941 28.2747 34.0203 28.4678C34.1464 28.6608 34.2138 28.8878 34.2138 29.12C34.2138 29.4314 34.0928 29.7301 33.8775 29.9502C33.6621 30.1704 33.3701 30.2941 33.0655 30.2941ZM35.5916 32.8771C35.3644 32.8771 35.1423 32.8081 34.9534 32.679C34.7645 32.5499 34.6174 32.3663 34.5305 32.1516C34.4437 31.9369 34.4211 31.7007 34.4657 31.4729C34.5102 31.245 34.6199 31.0358 34.7807 30.8718C34.9416 30.7077 35.1465 30.5961 35.3694 30.5511C35.5923 30.5062 35.8233 30.5298 36.033 30.6191C36.2428 30.7085 36.4219 30.8594 36.5477 31.0529C36.6735 31.2463 36.7404 31.4736 36.7398 31.7059C36.7391 32.0168 36.6178 32.3147 36.4025 32.5342C36.1873 32.7538 35.8956 32.8771 35.5916 32.8771ZM35.5916 27.7112C35.3645 27.7112 35.1425 27.6423 34.9537 27.5133C34.7649 27.3843 34.6177 27.2009 34.5308 26.9864C34.4439 26.7718 34.4212 26.5358 34.4655 26.308C34.5098 26.0803 34.6191 25.8711 34.7797 25.7069C34.9403 25.5427 35.1449 25.4309 35.3676 25.3856C35.5903 25.3403 35.8212 25.3635 36.031 25.4524C36.2408 25.5412 36.4202 25.6917 36.5463 25.8848C36.6725 26.0779 36.7398 26.3049 36.7398 26.5371C36.7398 26.8485 36.6189 27.1471 36.4035 27.3673C36.1882 27.5875 35.8961 27.7112 35.5916 27.7112ZM38.1177 30.2941C37.8906 30.2941 37.6686 30.2253 37.4798 30.0962C37.291 29.9672 37.1438 29.7839 37.0569 29.5693C36.97 29.3548 36.9472 29.1187 36.9915 28.891C37.0358 28.6632 37.1452 28.454 37.3058 28.2898C37.4664 28.1256 37.671 28.0138 37.8937 27.9685C38.1164 27.9232 38.3473 27.9465 38.5571 28.0353C38.7669 28.1242 38.9462 28.2747 39.0724 28.4678C39.1986 28.6608 39.2659 28.8878 39.2659 29.12C39.2659 29.4314 39.1449 29.7301 38.9296 29.9502C38.7143 30.1704 38.4222 30.2941 38.1177 30.2941Z" fill="white"/>
</g>
</svg>
