<svg width="222" height="23" viewBox="0 0 222 23" fill="none" xmlns="http://www.w3.org/2000/svg">
<g id="rate">
<path id="Vector" d="M15.6608 0.447816C15.4991 0.173603 15.1653 0 14.7999 0C14.4345 0 14.1008 0.173603 13.939 0.447816L10.009 7.11154L1.22197 8.17935C0.86033 8.2233 0.55987 8.43525 0.44693 8.72608C0.333989 9.01691 0.428157 9.33617 0.689837 9.54962L7.0484 14.7363L5.54694 22.0608C5.48516 22.3622 5.63321 22.6668 5.92885 22.8466C6.22448 23.0263 6.61642 23.05 6.93987 22.9077L14.7999 19.4495L22.6599 22.9077C22.9834 23.05 23.3753 23.0263 23.671 22.8466C23.9666 22.6668 24.1146 22.3622 24.0529 22.0608L22.5514 14.7363L28.91 9.54962C29.1716 9.33617 29.2658 9.01691 29.1529 8.72608C29.0399 8.43525 28.7395 8.2233 28.3778 8.17935L19.5908 7.11154L15.6608 0.447816Z" fill="#FE7443"/>
<path id="Vector_2" d="M63.6608 0.447816C63.4991 0.173603 63.1653 0 62.7999 0C62.4345 0 62.1008 0.173603 61.939 0.447816L58.009 7.11154L49.222 8.17935C48.8603 8.2233 48.5599 8.43525 48.4469 8.72608C48.334 9.01691 48.4282 9.33617 48.6898 9.54962L55.0484 14.7363L53.5469 22.0608C53.4852 22.3622 53.6332 22.6668 53.9288 22.8466C54.2245 23.0263 54.6164 23.05 54.9399 22.9077L62.7999 19.4495L70.6599 22.9077C70.9834 23.05 71.3753 23.0263 71.671 22.8466C71.9666 22.6668 72.1146 22.3622 72.0529 22.0608L70.5514 14.7363L76.91 9.54962C77.1716 9.33617 77.2658 9.01691 77.1529 8.72608C77.0399 8.43525 76.7395 8.2233 76.3778 8.17935L67.5908 7.11154L63.6608 0.447816Z" fill="#FE7443"/>
<path id="Vector_3" d="M111.661 0.447816C111.499 0.173603 111.165 0 110.8 0C110.434 0 110.101 0.173603 109.939 0.447816L106.009 7.11154L97.222 8.17935C96.8603 8.2233 96.5599 8.43525 96.4469 8.72608C96.334 9.01691 96.4282 9.33617 96.6898 9.54962L103.048 14.7363L101.547 22.0608C101.485 22.3622 101.633 22.6668 101.929 22.8466C102.224 23.0263 102.616 23.05 102.94 22.9077L110.8 19.4495L118.66 22.9077C118.983 23.05 119.375 23.0263 119.671 22.8466C119.967 22.6668 120.115 22.3622 120.053 22.0608L118.551 14.7363L124.91 9.54962C125.172 9.33617 125.266 9.01691 125.153 8.72608C125.04 8.43525 124.739 8.2233 124.378 8.17935L115.591 7.11154L111.661 0.447816Z" fill="#FE7443"/>
<path id="Vector_4" d="M159.661 0.447816C159.499 0.173603 159.165 0 158.8 0C158.434 0 158.101 0.173603 157.939 0.447816L154.009 7.11154L145.222 8.17935C144.86 8.2233 144.56 8.43525 144.447 8.72608C144.334 9.01691 144.428 9.33617 144.69 9.54962L151.048 14.7363L149.547 22.0608C149.485 22.3622 149.633 22.6668 149.929 22.8466C150.224 23.0263 150.616 23.05 150.94 22.9077L158.8 19.4495L166.66 22.9077C166.983 23.05 167.375 23.0263 167.671 22.8466C167.967 22.6668 168.115 22.3622 168.053 22.0608L166.551 14.7363L172.91 9.54962C173.172 9.33617 173.266 9.01691 173.153 8.72608C173.04 8.43525 172.739 8.2233 172.378 8.17935L163.591 7.11154L159.661 0.447816Z" fill="#FE7443"/>
<path id="Vector_5" d="M207.661 0.447816C207.499 0.173603 207.165 0 206.8 0C206.434 0 206.101 0.173603 205.939 0.447816L202.009 7.11154L193.222 8.17935C192.86 8.2233 192.56 8.43525 192.447 8.72608C192.334 9.01691 192.428 9.33617 192.69 9.54962L199.048 14.7363L197.547 22.0608C197.485 22.3622 197.633 22.6668 197.929 22.8466C198.224 23.0263 198.616 23.05 198.94 22.9077L206.8 19.4495L214.66 22.9077C214.983 23.05 215.375 23.0263 215.671 22.8466C215.967 22.6668 216.115 22.3622 216.053 22.0608L214.551 14.7363L220.91 9.54962C221.172 9.33617 221.266 9.01691 221.153 8.72608C221.04 8.43525 220.739 8.2233 220.378 8.17935L211.591 7.11154L207.661 0.447816Z" fill="#FE7443"/>
</g>
</svg>
