<svg width="62" height="62" viewBox="0 0 62 62" fill="none" xmlns="http://www.w3.org/2000/svg">
<g id="snack">
<rect id="Rectangle 6" width="62" height="62" rx="16" fill="#FFBE16"/>
<g id="snack_2">
<path id="Vector" d="M38.3459 36.5091H26.8863L24.5328 38.5181L22.1794 36.5091H17.2222V37.8867C17.2222 39.6426 18.4351 41.0731 19.935 41.1012C20.0744 41.9691 20.412 42.7532 20.92 43.3668C21.6714 44.2743 22.7637 44.7749 23.9955 44.7749H31.5725C32.8044 44.7749 33.8967 44.2743 34.6481 43.3657C35.1561 42.7521 35.4936 41.968 35.6331 41.1C36.4298 41.0857 37.1456 40.6753 37.6422 40.0307C38.1059 39.4127 38.3532 38.6593 38.3459 37.8867V36.5091Z" fill="white"/>
<path id="Vector_2" d="M22.3309 34.6722L24.5311 36.2904L26.7508 34.6722H38.3459V34.213C38.3452 33.6839 38.1622 33.1712 37.8276 32.7613C37.493 32.3514 37.0273 32.0695 36.509 31.9629C36.462 30.2586 35.7628 28.8322 34.4707 27.83C33.2756 26.8978 31.6787 26.4064 29.8505 26.4064H25.7176C21.8017 26.4064 19.1491 28.6319 19.059 31.9629C18.5407 32.0695 18.0751 32.3514 17.7405 32.7613C17.4059 33.1712 17.2228 33.6839 17.2222 34.213V34.6722H22.3309Z" fill="white"/>
<path id="Vector_3" d="M42.8851 21.8143H38.6035L39.1156 19.7674L41.6751 18.8869L41.1011 17.2222L37.5422 18.3703L36.7104 21.8143H28.2432V23.6512H29.3194L29.4262 24.5696H29.8504C32.0891 24.5696 34.0786 25.1953 35.5974 26.3789C36.4422 27.0298 37.1271 27.8653 37.5996 28.8213C37.8908 29.4145 38.0981 30.0452 38.2155 30.6955C39.0709 31.2221 39.7051 32.0422 39.9998 33.0025C40.2944 33.9628 40.2292 34.9976 39.8164 35.9133C40.0583 36.5431 40.1824 37.2121 40.1827 37.8867C40.1827 39.1691 39.7464 40.3912 38.9543 41.328C38.4641 41.912 37.8361 42.3647 37.1272 42.6453C36.8856 43.3338 36.5256 43.9749 36.0635 44.5396C35.9958 44.6211 35.9263 44.7009 35.8552 44.7778H40.1827C41.1011 44.7778 41.5029 44.3186 41.6177 43.4576L43.7071 23.6541H44.7748V21.8143H42.8851Z" fill="white"/>
</g>
</g>
</svg>
